<svg xmlns="http://www.w3.org/2000/svg" width="512" height="512" viewBox="0 0 512 512" version="1.1"><path d="M 55.960 65.303 C 52.984 66.877, 50.877 68.984, 49.303 71.960 C 46.611 77.051, 46.412 80.642, 48.537 85.782 C 50.658 90.911, 402.715 443.174, 408.566 446.021 C 413.876 448.606, 417.702 448.520, 423.040 445.697 C 426.016 444.123, 428.123 442.016, 429.697 439.040 C 432.389 433.950, 432.588 430.359, 430.464 425.218 C 428.345 420.091, 76.287 67.828, 70.434 64.979 C 65.124 62.394, 61.298 62.480, 55.960 65.303 M 407.708 82.090 C 401.943 85.132, 399.815 89.249, 400.259 96.500 C 400.588 101.874, 401.381 103.752, 407.861 114.500 C 435.912 161.030, 447.166 201.236, 447.187 255 C 447.202 294.264, 441.860 325.630, 430.412 353.500 C 424.823 367.108, 424.264 368.929, 424.806 371.767 C 425.301 374.355, 435.188 385.167, 439.973 388.353 C 443.439 390.662, 447.677 390.415, 450.333 387.750 C 456.155 381.908, 469.158 345.782, 473.881 322.328 C 479.027 296.772, 479.503 291.030, 479.464 255 C 479.432 225.366, 479.170 219.859, 477.195 207.277 C 472.408 176.776, 464.442 151.638, 450.965 124.500 C 439 100.407, 429.369 85.056, 424.480 82.287 C 419.476 79.453, 412.852 79.375, 407.708 82.090 M 221.500 98.400 C 218.750 99.710, 211.550 104.898, 205.500 109.931 C 199.450 114.963, 192.625 120.628, 190.334 122.520 C 185.095 126.845, 184.039 130.717, 186.860 135.253 C 187.971 137.039, 201.204 150.762, 216.266 165.750 C 243.347 192.696, 244.664 193.762, 250 193.032 C 250.825 192.919, 252.512 191.887, 253.750 190.739 L 256 188.651 256 151.522 L 256 114.393 253.451 109.278 C 247.563 97.462, 233.515 92.680, 221.500 98.400 M 361.500 129.417 C 359.850 130.154, 357.179 132.161, 355.564 133.877 C 353.182 136.409, 352.550 138.084, 352.216 142.749 C 351.849 147.875, 352.207 149.260, 355.512 155.500 C 362.135 168.003, 366.840 177.396, 369.034 182.500 C 375.761 198.143, 380.384 215.720, 382.111 232.217 C 383.613 246.563, 382.750 278.828, 380.551 290.500 C 379.619 295.450, 378.748 300.419, 378.615 301.542 C 378.483 302.666, 378.113 304.016, 377.793 304.542 C 376.435 306.776, 374 316.639, 374 319.904 C 374 323.021, 375.005 324.434, 382.409 331.722 C 389.589 338.790, 391.311 340, 394.187 340 C 399.836 340, 401.529 337.924, 405.396 326.252 C 412.919 303.545, 416 283.194, 416 256.217 C 416 226.855, 412.567 205.597, 403.772 180.500 C 399.808 169.186, 383.960 137.631, 380.270 133.702 C 375.189 128.293, 367.798 126.606, 361.500 129.417 M 316.646 176.180 C 303.769 178.960, 300.662 189.494, 308.021 205.423 C 310.232 210.209, 313.426 218.934, 315.119 224.813 C 317.776 234.037, 318.268 237.622, 318.711 251 C 319.318 269.295, 319.367 269.413, 330.738 279.899 C 337.315 285.965, 338.964 287, 342.045 287 C 347.693 287, 349.772 284.011, 351.129 273.940 C 352.708 262.216, 351.657 237.031, 349.087 225.011 C 344.775 204.842, 335.054 182.104, 329.311 178.750 C 324.594 175.995, 320.939 175.253, 316.646 176.180 M 46.500 177.867 C 40.614 180.551, 36.497 184.411, 34.113 189.483 C 32.033 193.907, 32 194.957, 32 256 C 32 317.134, 32.030 318.086, 34.123 322.538 C 36.680 327.978, 42.573 333.256, 47.858 334.839 C 50.492 335.628, 63.435 336, 88.276 336 L 124.820 336 129.660 339.892 C 135.119 344.281, 187.302 387.023, 205.260 401.814 C 219.815 413.802, 222.686 415.363, 231 415.808 C 238.936 416.233, 243.490 414.510, 249 409 C 255.824 402.176, 256 401.190, 256 369.828 C 256 347.481, 255.713 341.361, 254.564 339.200 C 252.322 334.983, 94.865 178.227, 91.685 177.046 C 90.079 176.449, 80.630 176.009, 69.685 176.022 C 53.279 176.041, 49.920 176.308, 46.500 177.867" stroke="none" fill="#fffcfc" fill-rule="evenodd"/><path d="" stroke="none" fill="#fcfcfc" fill-rule="evenodd"/></svg>